<svg width="106" height="22" viewBox="0 0 106 22" fill="none" xmlns="http://www.w3.org/2000/svg">
<path d="M0 0.920166H4.846C6.30852 0.920166 7.47493 1.23281 8.34522 1.8581C9.21401 2.48339 9.64991 3.49648 9.64991 4.89437C9.64991 6.45759 9.00057 7.5744 7.70189 8.24328C9.92197 8.63709 11.0328 9.9493 11.0328 12.1814C11.0328 13.4921 10.5773 14.5473 9.66795 15.3439C8.76158 16.1376 7.5125 16.5344 5.92222 16.5344H0V0.920166ZM3.55935 7.03478H3.84193C4.63557 7.03478 5.22628 6.8965 5.61559 6.61993C6.0079 6.34035 6.2048 5.88491 6.2048 5.25511C6.2048 4.19392 5.41718 3.66182 3.84193 3.66182H3.55935V7.03478ZM3.55935 13.7927H4.67164C6.41524 13.7927 7.28704 13.2125 7.28704 12.0491C7.28704 11.3562 7.06758 10.8587 6.63169 10.5581C6.19879 10.2544 5.54494 10.1011 4.67164 10.1011H3.55935V13.7927Z" fill="#000760"/>
<path d="M20.7445 12.1454H13.704C13.704 12.8278 13.9234 13.3328 14.3654 13.6605C14.8058 13.9852 15.2853 14.1475 15.8023 14.1475C16.3434 14.1475 16.7718 14.0754 17.089 13.9311C17.4046 13.7868 17.7654 13.5012 18.1712 13.0713L20.5942 14.2798C19.5841 15.9723 17.9037 16.817 15.5558 16.817C14.0918 16.817 12.8352 16.3165 11.786 15.3139C10.7399 14.3128 10.2168 13.1059 10.2168 11.6944C10.2168 10.28 10.7399 9.06702 11.786 8.05694C12.8352 7.04685 14.0918 6.54181 15.5558 6.54181C17.095 6.54181 18.3471 6.98673 19.3136 7.87656C20.2786 8.7664 20.7626 10.038 20.7626 11.6884C20.7626 11.9169 20.7565 12.0702 20.7445 12.1454ZM13.7942 10.2875H17.4858C17.4091 9.7825 17.2107 9.3962 16.8906 9.12714C16.5689 8.85508 16.1571 8.7183 15.652 8.7183C15.0944 8.7183 14.6509 8.8656 14.3233 9.15721C13.9986 9.4458 13.8212 9.82308 13.7942 10.2875Z" fill="#000760"/>
<path d="M20.2079 18.9214L22.9556 17.5746C23.4606 18.4073 24.3384 18.8252 25.589 18.8252C26.1662 18.8252 26.7028 18.6388 27.2003 18.266C27.7009 17.8932 27.9519 17.3221 27.9519 16.5525V15.837C27.3582 16.4908 26.2985 16.817 24.7713 16.817C23.3719 16.817 22.2176 16.3225 21.3082 15.3319C20.3973 14.3429 19.9434 13.1284 19.9434 11.6884C19.9434 10.25 20.3973 9.03395 21.3082 8.0389C22.2176 7.04084 23.3719 6.54181 24.7713 6.54181C26.0219 6.54181 27.0636 6.9266 27.8978 7.69619H27.9519V6.82439H31.3008V16.799C31.3008 18.3772 30.7777 19.5962 29.7316 20.4545C28.6854 21.3113 27.304 21.7412 25.589 21.7412C22.8113 21.7412 21.0166 20.8002 20.2079 18.9214ZM24.152 10.041C23.7192 10.4709 23.5027 11.0195 23.5027 11.6884C23.5027 12.3588 23.7101 12.9059 24.128 13.3298C24.5444 13.7507 25.093 13.9611 25.7754 13.9611C26.4322 13.9611 26.9719 13.7477 27.3927 13.3178C27.8166 12.8894 28.03 12.3468 28.03 11.6884C28.03 11.0195 27.8106 10.4709 27.3747 10.041C26.9373 9.61265 26.4037 9.3977 25.7754 9.3977C25.1291 9.3977 24.5879 9.61265 24.152 10.041Z" fill="#000760"/>
<path d="M42.3379 16.5344V6.82439H45.6868V8.22528H45.7229C45.7499 8.17418 45.792 8.11105 45.8491 8.0389C45.9048 7.96374 46.0265 7.83147 46.2159 7.64208C46.4038 7.44968 46.6037 7.27983 46.8171 7.13102C47.0336 6.97921 47.3117 6.84243 47.6529 6.72218C47.9926 6.60193 48.3413 6.54181 48.699 6.54181C49.0628 6.54181 49.422 6.59291 49.7752 6.69212C50.127 6.79283 50.3855 6.89353 50.5508 6.99274L50.8154 7.14906L49.4145 9.98692C48.9966 9.63519 48.4179 9.45783 47.6769 9.45783C47.2711 9.45783 46.9224 9.54651 46.6307 9.72237C46.3422 9.89974 46.1377 10.1132 46.0175 10.3657C45.8972 10.6182 45.8101 10.8332 45.759 11.009C45.7109 11.1864 45.6868 11.3247 45.6868 11.4239V16.5344H42.3379Z" fill="#000760"/>
<path d="M50.7398 15.3319C49.8289 14.3429 49.375 13.1284 49.375 11.6884C49.375 10.25 49.8289 9.03395 50.7398 8.0389C51.6492 7.04084 52.8036 6.54181 54.203 6.54181C55.4896 6.54181 56.5493 6.94464 57.3835 7.7503V6.82439H60.7324V16.5344H57.4196V15.4342H57.3835C56.5493 16.3571 55.4896 16.817 54.203 16.817C52.8036 16.817 51.6492 16.3225 50.7398 15.3319ZM53.5837 10.041C53.1508 10.4709 52.9343 11.0195 52.9343 11.6884C52.9343 12.3588 53.1418 12.9059 53.5596 13.3298C53.976 13.7507 54.5246 13.9611 55.207 13.9611C55.8639 13.9611 56.4035 13.7477 56.8244 13.3178C57.2482 12.8894 57.4617 12.3468 57.4617 11.6884C57.4617 11.0195 57.2422 10.4709 56.8063 10.041C56.3689 9.61265 55.8353 9.3977 55.207 9.3977C54.5607 9.3977 54.0196 9.61265 53.5837 10.041Z" fill="#000760"/>
<path d="M61.3203 16.5344V0.25882H64.6692V7.84648H64.7053C65.5786 6.97768 66.506 6.54179 67.489 6.54179C67.97 6.54179 68.4465 6.60642 68.92 6.73418C69.392 6.85894 69.8459 7.05284 70.2788 7.31739C70.7147 7.58193 71.0679 7.95771 71.337 8.44171C71.609 8.92721 71.7458 9.49237 71.7458 10.1372V16.5344H68.3969V11.0451C68.3969 10.54 68.2361 10.0996 67.9159 9.72235C67.5943 9.34206 67.1764 9.15117 66.6593 9.15117C66.1543 9.15117 65.6943 9.34808 65.2825 9.74039C64.8736 10.1297 64.6692 10.5641 64.6692 11.0451V16.5344H61.3203Z" fill="#000760"/>
<path d="M74.303 12.482C74.9072 12.482 75.4213 12.6955 75.8422 13.1193C76.266 13.5402 76.4795 14.0543 76.4795 14.6585C76.4795 15.2522 76.266 15.7618 75.8422 16.1857C75.4213 16.6065 74.9072 16.817 74.303 16.817C73.7093 16.817 73.1997 16.6065 72.7758 16.1857C72.355 15.7618 72.1445 15.2522 72.1445 14.6585C72.1445 14.0543 72.355 13.5402 72.7758 13.1193C73.1997 12.6955 73.7093 12.482 74.303 12.482Z" fill="#000760"/>
<path d="M84.1062 0.920166V13.4139H89.4813V16.5344H80.5469V0.920166H84.1062Z" fill="#000760"/>
<path d="M90.1196 6.82436V3.21091H93.4746V6.82436H95.5128V9.37964H93.4746V12.464C93.4746 13.3629 93.7241 13.8108 94.2261 13.8108C94.3539 13.8108 94.4862 13.7867 94.6229 13.7386C94.7627 13.6875 94.8709 13.6349 94.9476 13.5823L95.0618 13.5041L95.8916 16.2097C95.1731 16.6141 94.3539 16.817 93.4325 16.817C92.8027 16.817 92.2601 16.7058 91.8031 16.4863C91.3492 16.2669 91.0065 15.9692 90.775 15.5965C90.542 15.2237 90.3737 14.8329 90.27 14.424C90.1692 14.0152 90.1196 13.5763 90.1196 13.1073V9.37964H88.7188V6.82436H90.1196Z" fill="#000760"/>
<path d="M96.0074 15.3319C95.0965 14.3429 94.6426 13.1284 94.6426 11.6884C94.6426 10.2499 95.0965 9.03393 96.0074 8.03887C96.9168 7.04081 98.0712 6.54178 99.4705 6.54178C100.757 6.54178 101.817 6.94462 102.651 7.75028V0.25882H106V16.5344H102.687V15.4341H102.651C101.817 16.357 100.757 16.817 99.4705 16.817C98.0712 16.817 96.9168 16.3225 96.0074 15.3319ZM98.8513 10.041C98.4184 10.4709 98.2019 11.0195 98.2019 11.6884C98.2019 12.3588 98.4094 12.9059 98.8272 13.3298C99.2436 13.7507 99.7922 13.9611 100.475 13.9611C101.131 13.9611 101.671 13.7477 102.092 13.3178C102.516 12.8894 102.729 12.3468 102.729 11.6884C102.729 11.0195 102.51 10.4709 102.074 10.041C101.637 9.61262 101.103 9.39768 100.475 9.39768C99.8283 9.39768 99.2872 9.61262 98.8513 10.041Z" fill="#000760"/>
<mask id="mask0_191_1629" style="mask-type:luminance" maskUnits="userSpaceOnUse" x="31" y="7" width="12" height="9">
<path d="M31.6484 7.07089H42.4227V15.5243H31.6484V7.07089Z" fill="white"/>
</mask>
<g mask="url(#mask0_191_1629)">
<path d="M39.4066 7.86303C38.6956 7.3655 37.8283 7.07089 36.8889 7.07089C34.4538 7.07089 32.4773 9.04897 32.4773 11.484C32.4773 11.6058 32.4848 11.729 32.4938 11.8508C31.7167 12.8563 31.4882 13.7552 31.8475 14.3925C32.1331 14.89 32.7629 15.1606 33.6377 15.1606C33.8496 15.1606 34.0781 15.1441 34.3231 15.111C35.4835 14.9562 36.8483 14.4571 38.1635 13.6981C38.9977 13.2156 39.7327 12.676 40.3295 12.1288C40.6241 11.8598 40.8766 11.5982 41.0976 11.3367C41.1306 11.2961 41.1622 11.254 41.1953 11.2225C42.0039 10.2169 42.3151 9.2534 41.9228 8.58301C41.5635 7.93668 40.6722 7.69167 39.4066 7.86303ZM32.2728 14.1475C32.0594 13.7717 32.1827 13.2081 32.608 12.5452C32.8125 13.3629 33.2453 14.0979 33.8331 14.6616C33.0484 14.7021 32.4938 14.5233 32.2728 14.1475ZM41.1712 10.4288C40.9668 9.60362 40.5339 8.87612 39.9447 8.30494C40.7293 8.26436 41.293 8.44322 41.5064 8.819C41.7183 9.18726 41.5951 9.76746 41.1712 10.4288Z" fill="#000760"/>
</g>
<path d="M38.5065 14.0408C37.28 14.7517 36.0053 15.2342 34.8945 15.4221C35.4988 15.7242 36.1767 15.8956 36.8876 15.8956C39.1919 15.8956 41.0873 14.1219 41.2842 11.8673C40.6063 12.6188 39.6503 13.3794 38.5065 14.0408Z" fill="#000760"/>
</svg>
