<svg width="51" height="42" viewBox="0 0 51 42" fill="none" xmlns="http://www.w3.org/2000/svg">
<mask id="mask0_259_1117" style="mask-type:luminance" maskUnits="userSpaceOnUse" x="0" y="0" width="51" height="40">
<path d="M0 0H50.8219V39.8747H0V0Z" fill="white"/>
</mask>
<g mask="url(#mask0_259_1117)">
<path d="M36.5916 3.73648C33.238 1.38966 29.147 0 24.7157 0C13.2297 0 3.90626 9.33058 3.90626 20.8165C3.90626 21.3908 3.94171 21.9722 3.98425 22.5465C0.318668 27.2898 -0.759028 31.5297 0.935507 34.5359C2.28263 36.8827 5.25338 38.1589 9.37982 38.1589C10.3795 38.1589 11.4572 38.0809 12.6129 37.925C18.0865 37.1947 24.5243 34.8408 30.7281 31.2603C34.6631 28.9843 38.1302 26.439 40.945 23.8582C42.3346 22.5891 43.5258 21.3554 44.568 20.1217C44.724 19.9303 44.8729 19.7318 45.0289 19.5829C48.8433 14.8396 50.311 10.2948 48.4605 7.13264C46.7659 4.0839 42.5615 2.92821 36.5916 3.73648ZM2.94201 33.3802C1.93521 31.6077 2.5166 28.9489 4.5231 25.8222C5.48735 29.6792 7.5293 33.1462 10.3015 35.805C6.6005 35.9965 3.98425 35.1527 2.94201 33.3802ZM44.9154 15.8393C43.9512 11.9468 41.9092 8.51521 39.1299 5.82097C42.8309 5.62954 45.4897 6.47326 46.4965 8.24579C47.4962 9.98287 46.9148 12.7196 44.9154 15.8393Z" fill="#000760"/>
</g>
<path d="M32.3517 32.8768C26.5662 36.2304 20.5538 38.5063 15.3142 39.3926C18.1644 40.8177 21.3621 41.626 24.7157 41.626C35.5848 41.626 44.5254 33.2597 45.4542 22.6245C42.2566 26.1696 37.7473 29.7572 32.3517 32.8768Z" fill="#000760"/>
</svg>
